<svg width="68" height="67" viewBox="0 0 68 67" fill="none" xmlns="http://www.w3.org/2000/svg">
<g clip-path="url(#clip0_24_113)">
<path d="M0 32.16C0 16.9996 0 9.41945 4.78002 4.70972C9.56003 0 17.2533 0 32.64 0H35.36C50.7467 0 58.4399 0 63.22 4.70972C68 9.41945 68 16.9996 68 32.16V34.84C68 50.0004 68 57.5805 63.22 62.2903C58.4399 67 50.7467 67 35.36 67H32.64C17.2533 67 9.56003 67 4.78002 62.2903C0 57.5805 0 50.0004 0 34.84V32.16Z" fill="#0077FF"/>
<path d="M36.1817 48.2681C20.6833 48.2681 11.8435 37.7994 11.4751 20.3794H19.2385C19.4935 33.1652 25.2167 38.5811 29.75 39.6977V20.3794H37.0603V31.4065C41.537 30.9319 46.2397 25.9069 47.8264 20.3794H55.1365C53.9182 27.1911 48.8182 32.2161 45.1915 34.2819C48.8182 35.9569 54.6268 40.3398 56.8368 48.2681H48.7899C47.0615 42.964 42.7553 38.8602 37.0603 38.3019V48.2681H36.1817Z" fill="white"/>
</g>
<defs>
<clipPath id="clip0_24_113">
<rect width="68" height="67" fill="white"/>
</clipPath>
</defs>
</svg>
