<svg width="66" height="67" viewBox="0 0 66 67" fill="none" xmlns="http://www.w3.org/2000/svg">
<g clip-path="url(#clip0_24_112)">
<path d="M33 67C51.2254 67 66 52.0015 66 33.5C66 14.9985 51.2254 0 33 0C14.7746 0 0 14.9985 0 33.5C0 52.0015 14.7746 67 33 67Z" fill="url(#paint0_linear_24_112)"/>
<path fill-rule="evenodd" clip-rule="evenodd" d="M14.9377 33.1464C24.5578 28.8915 30.9728 26.0864 34.1825 24.7312C43.347 20.8616 45.2513 20.1894 46.4925 20.1672C46.7655 20.1623 47.3759 20.231 47.7712 20.5567C48.1051 20.8317 48.1969 21.2032 48.2409 21.4639C48.2848 21.7247 48.3396 22.3186 48.2961 22.7827C47.7994 28.0798 45.6506 40.9346 44.5573 46.8675C44.0947 49.3779 43.1839 50.2196 42.3021 50.302C40.3857 50.481 38.9305 49.0164 37.0744 47.7812C34.17 45.8485 32.5292 44.6454 29.7099 42.7594C26.4518 40.5798 28.5639 39.3818 30.4207 37.4241C30.9066 36.9117 39.3502 29.1153 39.5136 28.408C39.5341 28.3196 39.553 27.9898 39.3601 27.8157C39.1671 27.6416 38.8823 27.7012 38.6768 27.7485C38.3855 27.8156 33.7457 30.9289 24.7572 37.0882C23.4402 38.0063 22.2473 38.4536 21.1785 38.4302C20.0002 38.4043 17.7337 37.7539 16.0488 37.1979C13.9822 36.5159 12.3397 36.1553 12.4827 34.9972C12.5572 34.3939 13.3755 33.777 14.9377 33.1464Z" fill="white"/>
</g>
<defs>
<linearGradient id="paint0_linear_24_112" x1="33" y1="0" x2="33" y2="66.5031" gradientUnits="userSpaceOnUse">
<stop stop-color="#2AABEE"/>
<stop offset="1" stop-color="#229ED9"/>
</linearGradient>
<clipPath id="clip0_24_112">
<rect width="66" height="67" fill="white"/>
</clipPath>
</defs>
</svg>
